<?xml version="1.0" encoding="UTF-8" standalone="no"?>
<!-- Created with Inkscape (http://www.inkscape.org/) -->

<svg
   xmlns:dc="http://purl.org/dc/elements/1.1/"
   xmlns:cc="http://creativecommons.org/ns#"
   xmlns:rdf="http://www.w3.org/1999/02/22-rdf-syntax-ns#"
   xmlns:svg="http://www.w3.org/2000/svg"
   xmlns="http://www.w3.org/2000/svg"
   xmlns:sodipodi="http://sodipodi.sourceforge.net/DTD/sodipodi-0.dtd"
   xmlns:inkscape="http://www.inkscape.org/namespaces/inkscape"
   width="164mm"
   height="161mm"
   viewBox="0 0 581.10223 570.47192"
   id="svg2"
   version="1.1"
   inkscape:version="0.91 r13725"
   sodipodi:docname="logo_white.svg">
  <defs
     id="defs4" />
  <sodipodi:namedview
     id="base"
     pagecolor="#ffffff"
     bordercolor="#666666"
     borderopacity="1.0"
     inkscape:pageopacity="0.0"
     inkscape:pageshadow="2"
     inkscape:zoom="0.49497475"
     inkscape:cx="-42.735762"
     inkscape:cy="262.2336"
     inkscape:document-units="px"
     inkscape:current-layer="g3374"
     showgrid="false"
     inkscape:window-width="1366"
     inkscape:window-height="719"
     inkscape:window-x="0"
     inkscape:window-y="25"
     inkscape:window-maximized="1" />
  <metadata
     id="metadata7">
    <rdf:RDF>
      <cc:Work
         rdf:about="">
        <dc:format>image/svg+xml</dc:format>
        <dc:type
           rdf:resource="http://purl.org/dc/dcmitype/StillImage" />
        <dc:title />
      </cc:Work>
    </rdf:RDF>
  </metadata>
  <g
     inkscape:label="Layer 1"
     inkscape:groupmode="layer"
     id="layer1"
     transform="translate(0,-481.89008)">
    <g
       id="g3374"
       transform="translate(-184.95072,210.59524)">
      <g
         id="g3380"
         transform="matrix(0.48969591,0,0,0.48969591,251.03453,274.1395)"
         style="fill:#ffffff">
        <path
           style="fill:#ffffff"
           d="m 273.43284,547.31392 c 0,-0.22712 0.82617,-1.08845 1.83594,-1.91407 1.66394,-1.36048 1.70105,-1.32179 0.3961,0.41296 -1.37053,1.82191 -2.23204,2.4013 -2.23204,1.50111 z"
           id="path3390"
           inkscape:connector-curvature="0" />
        <path
           style="fill:#ffffff"
           d="m 276.50076,667.21903 -2.54336,-3.00781 2.88504,2.65159 c 2.69651,2.47832 3.36615,3.36403 2.54337,3.36403 -0.18793,0 -1.4862,-1.35351 -2.88505,-3.00781 z m 403.90617,-123.59372 -2.54336,-3.00781 2.88505,2.65159 c 2.69651,2.47831 3.36615,3.36403 2.54336,3.36403 -0.18792,0 -1.48619,-1.35351 -2.88505,-3.00781 z"
           id="path3388"
           inkscape:connector-curvature="0" />
        <path
           style="fill:#ffffff"
           d="m 252.53353,599.58884 c 0.0503,-1.27416 0.29893,-1.53332 0.63383,-0.66081 0.30306,0.78955 0.26579,1.73292 -0.0828,2.09636 -0.34861,0.36344 -0.59657,-0.28256 -0.55102,-1.43555 z M 628.94628,460.50033 c -1.30496,-1.73476 -1.26785,-1.77344 0.3961,-0.41296 1.00976,0.82562 1.83593,1.68695 1.83593,1.91406 0,0.9002 -0.86151,0.32081 -2.23203,-1.5011 z m -4.19643,-4.375 c -1.30495,-1.73475 -1.26785,-1.77344 0.3961,-0.41296 1.00976,0.82562 1.83594,1.68695 1.83594,1.91406 0,0.9002 -0.86152,0.32081 -2.23204,-1.5011 z M 336.90381,431.7894 c 2.25374,-2.40625 4.33376,-4.375 4.62226,-4.375 0.28851,0 -1.31942,1.96875 -3.57315,4.375 -2.25373,2.40625 -4.33376,4.375 -4.62226,4.375 -0.2885,0 1.31942,-1.96875 3.57315,-4.375 z m 165.70954,-0.27344 -4.14707,-4.64844 4.45871,4.32354 c 4.14655,4.02084 4.9408,4.97334 4.14707,4.97334 -0.17141,0 -2.17782,-2.0918 -4.45871,-4.64844 z"
           id="path3386"
           inkscape:connector-curvature="0" />
        <path
           style="fill:#ffffff"
           d="m 331.98612,692.44844 c 0.75732,-0.31595 1.66218,-0.2771 2.0108,0.0863 0.3486,0.36344 -0.27103,0.62195 -1.37696,0.57445 -1.22215,-0.0525 -1.47074,-0.31165 -0.63384,-0.6608 z m 292.70084,0 c 0.75732,-0.31595 1.66219,-0.2771 2.0108,0.0863 0.3486,0.36344 -0.27103,0.62195 -1.37696,0.57445 -1.22215,-0.0525 -1.47074,-0.31165 -0.63384,-0.6608 z M 252.53353,609.43259 c 0.0503,-1.27416 0.29893,-1.53333 0.63383,-0.66081 0.30306,0.78955 0.26579,1.73292 -0.0828,2.09636 -0.34861,0.36344 -0.59657,-0.28256 -0.55102,-1.43555 z m 452.1651,0 c 0.0503,-1.27416 0.29893,-1.53333 0.63383,-0.66081 0.30305,0.78955 0.26579,1.73292 -0.0828,2.09636 -0.34861,0.36344 -0.59656,-0.28256 -0.55101,-1.43555 z M 302.89066,524.12011 c 0.0503,-1.27416 0.29893,-1.53333 0.63384,-0.66081 0.30305,0.78954 0.26578,1.7329 -0.0828,2.09636 -0.34861,0.36344 -0.59657,-0.28256 -0.55101,-1.43555 z m 351.45083,-1.09375 c 0.0504,-1.27416 0.29894,-1.53333 0.63383,-0.66081 0.30306,0.78954 0.26579,1.7329 -0.0828,2.09636 -0.34861,0.36344 -0.59657,-0.28256 -0.55101,-1.43555 z m -351.368,-9.20573 c 0,-1.50391 0.23812,-2.11914 0.52915,-1.36719 0.29104,0.75195 0.29104,1.98242 0,2.73438 -0.29103,0.75195 -0.52915,0.13671 -0.52915,-1.36719 z m 262.96349,-82.77839 c 0.75731,-0.31595 1.66218,-0.2771 2.01079,0.0863 0.3486,0.36344 -0.27103,0.62195 -1.37696,0.57446 -1.22215,-0.0525 -1.47074,-0.31165 -0.63383,-0.6608 z M 414.8,396.06503 c 0.72127,-0.30341 1.90151,-0.30341 2.62277,0 0.72126,0.30342 0.13114,0.55168 -1.31138,0.55168 -1.44252,0 -2.03265,-0.24826 -1.31139,-0.55168 z"
           id="path3384"
           inkscape:connector-curvature="0" />
        <path
           style="fill:#ffffff"
           d="m 326.77081,692.03631 c -10.21217,-1.15287 -22.31419,-5.34747 -32.33158,-11.2062 -10.49501,-6.13806 -24.24023,-20.46819 -30.12776,-31.40979 -23.16723,-43.05481 -8.84441,-96.6947 32.02931,-119.95185 l 6.99161,-3.97822 0.25778,-10.48325 c 1.41803,-57.66871 41.04663,-106.02652 95.62495,-116.68877 11.69786,-2.28526 30.73238,-2.3011 42.1494,-0.0351 25.3673,5.03483 46.9161,17.48295 64.84105,37.45682 l 8.37375,9.33091 7.68008,-3.81242 c 32.23949,-16.00381 68.90595,-12.31477 96.32963,9.69174 20.04239,16.08331 33.23654,40.48586 35.43539,65.53771 l 0.7588,8.64504 8.91741,5.47337 c 11.42005,7.00946 24.06412,20.19231 30.10351,31.38632 27.37042,50.73099 2.59877,112.24075 -51.6102,128.15182 l -8.39286,2.46342 -149.49774,0.16776 c -82.22376,0.0923 -153.11339,-0.24043 -157.53253,-0.73932 z"
           id="path3382"
           inkscape:connector-curvature="0" />
      </g>
      <g
         id="g3403"
         transform="matrix(0.92860742,0,0,0.92860742,15.217067,14.352954)">
        <path
           style="fill:#d0d0d0"
           d="m 278.18411,779.57949 c -1.55484,-1.98257 -1.51063,-2.02678 0.47194,-0.47195 1.20313,0.94357 2.1875,1.92794 2.1875,2.1875 0,1.0288 -1.02648,0.36664 -2.65944,-1.71555 z m 445.15936,1.71555 c 0,-0.25956 0.98437,-1.24393 2.1875,-2.1875 1.98257,-1.55483 2.02679,-1.51062 0.47195,0.47195 -1.63296,2.08219 -2.65945,2.74435 -2.65945,1.71555 z m -403.79263,-20.46554 -6.83229,-7.1875 7.18749,6.8323 c 6.67742,6.34742 7.76012,7.5427 6.8323,7.5427 -0.19536,0 -3.42973,-3.23438 -7.1875,-7.1875 z m 363.79264,0.3125 c 3.73427,-3.78125 7.07084,-6.875 7.41459,-6.875 0.34375,0 -2.43032,3.09375 -6.16459,6.875 -3.73428,3.78125 -7.07085,6.875 -7.4146,6.875 -0.34375,0 2.43032,-3.09375 6.1646,-6.875 z m -273.12495,-4.375 c 1.24436,-1.375 2.54372,-2.5 2.88747,-2.5 0.34375,0 -0.39311,1.125 -1.63747,2.5 -1.24437,1.375 -2.54373,2.5 -2.88748,2.5 -0.34375,0 0.39311,-1.125 1.63748,-2.5 z m 182.3812,-0.3125 -2.38124,-2.8125 2.8125,2.38123 c 1.54688,1.30968 2.8125,2.5753 2.8125,2.8125 0,1.00032 -1.00598,0.26182 -3.24376,-2.38123 z m -213.74996,-56.24999 -2.38124,-2.8125 2.8125,2.38124 c 2.64305,2.23777 3.38155,3.24376 2.38124,3.24376 -0.2372,0 -1.50282,-1.26563 -2.8125,-2.8125 z m 245.11872,0.3125 c 1.24436,-1.375 2.54372,-2.5 2.88747,-2.5 0.34375,0 -0.39311,1.125 -1.63747,2.5 -1.24437,1.375 -2.54373,2.5 -2.88748,2.5 -0.34375,0 0.39311,-1.125 1.63748,-2.5 z m -217.03441,-33.4375 c -1.55484,-1.98257 -1.51063,-2.02678 0.47195,-0.47195 2.08218,1.63297 2.74435,2.65945 1.71555,2.65945 -0.25957,0 -1.24394,-0.98437 -2.1875,-2.1875 z m 187.65941,1.71555 c 0,-0.25956 0.98438,-1.24393 2.1875,-2.1875 1.98258,-1.55483 2.02679,-1.51062 0.47195,0.47195 -1.63296,2.08219 -2.65945,2.74435 -2.65945,1.71555 z m -94.06248,-44.10589 c 0.85938,-0.34676 2.26562,-0.34676 3.125,0 0.85937,0.34676 0.15625,0.63049 -1.5625,0.63049 -1.71875,0 -2.42187,-0.28373 -1.5625,-0.63049 z m -127.08879,-34.9013 c 0.06,-1.45619 0.35618,-1.75238 0.7552,-0.75522 0.36109,0.90234 0.31669,1.98048 -0.0986,2.39584 -0.41538,0.41536 -0.7108,-0.32292 -0.65653,-1.64062 z m 256.24995,0 c 0.06,-1.45619 0.35618,-1.75238 0.7552,-0.75522 0.36109,0.90234 0.31669,1.98048 -0.0986,2.39584 -0.41536,0.41536 -0.7108,-0.32292 -0.65653,-1.64062 z m -383.50816,-8.02084 c 0,-3.09375 0.24377,-4.35937 0.54171,-2.8125 0.29795,1.54688 0.29795,4.07812 0,5.625 -0.29794,1.54687 -0.54171,0.28125 -0.54171,-2.8125 z m 511.2499,0 c 0,-3.09375 0.24378,-4.35937 0.54171,-2.8125 0.29795,1.54688 0.29795,4.07812 0,5.625 -0.29793,1.54687 -0.54171,0.28125 -0.54171,-2.8125 z m -298.89303,0 c 0,-1.71875 0.28373,-2.42187 0.63049,-1.5625 0.34676,0.85938 0.34676,2.26562 0,3.125 -0.34676,0.85937 -0.63049,0.15625 -0.63049,-1.5625 z m 86.24998,0 c 0,-1.71875 0.28373,-2.42187 0.63049,-1.5625 0.34676,0.85938 0.34676,2.26562 0,3.125 -0.34676,0.85937 -0.63049,0.15625 -0.63049,-1.5625 z m -171.34864,-8.22916 c 0.06,-1.45619 0.35618,-1.75238 0.7552,-0.75521 0.36109,0.90233 0.31669,1.98046 -0.0986,2.39583 -0.41538,0.41537 -0.7108,-0.32292 -0.65653,-1.64062 z m 256.24995,0 c 0.06,-1.45619 0.35618,-1.75238 0.7552,-0.75521 0.36109,0.90233 0.31669,1.98046 -0.0986,2.39583 -0.41536,0.41537 -0.7108,-0.32292 -0.65653,-1.64062 z M 500.53101,538.43919 c 0.85938,-0.34676 2.26562,-0.34676 3.125,0 0.85937,0.34676 0.15625,0.63049 -1.5625,0.63049 -1.71875,0 -2.42187,-0.28373 -1.5625,-0.63049 z M 405.84353,497.5451 c 0,-0.25957 0.98437,-1.24394 2.1875,-2.1875 1.98257,-1.55484 2.02678,-1.51063 0.47195,0.47195 -1.63296,2.08218 -2.65945,2.74435 -2.65945,1.71555 z m 189.84051,-1.71555 c -1.55483,-1.98258 -1.51062,-2.02679 0.47195,-0.47195 2.08219,1.63296 2.74435,2.65945 1.71555,2.65945 -0.25956,0 -1.24394,-0.98438 -2.1875,-2.1875 z m -216.71551,-32.8125 c 1.24437,-1.375 2.54373,-2.5 2.88748,-2.5 0.34375,0 -0.39311,1.125 -1.63748,2.5 -1.24436,1.375 -2.54372,2.5 -2.88747,2.5 -0.34375,0 0.39311,-1.125 1.63747,-2.5 z m 244.88119,-0.3125 -2.38123,-2.8125 2.8125,2.38124 c 2.64305,2.23777 3.38155,3.24376 2.38123,3.24376 -0.2372,0 -1.50282,-1.26562 -2.8125,-2.8125 z M 319.59354,402.39206 c 3.73428,-3.78125 7.07085,-6.875 7.4146,-6.875 0.34375,0 -2.43032,3.09375 -6.1646,6.875 -3.73427,3.78125 -7.07084,6.875 -7.41459,6.875 -0.34375,0 2.43032,-3.09375 6.16459,-6.875 z m 90.50622,4.0625 -2.38123,-2.8125 2.8125,2.38124 c 2.64305,2.23778 3.38155,3.24376 2.38123,3.24376 -0.2372,0 -1.50282,-1.26562 -2.8125,-2.8125 z m 182.61873,0.3125 c 1.24437,-1.375 2.54373,-2.5 2.88748,-2.5 0.34375,0 -0.39311,1.125 -1.63748,2.5 -1.24436,1.375 -2.54372,2.5 -2.88747,2.5 -0.34375,0 0.39311,-1.125 1.63747,-2.5 z m 90.58229,-4.6875 -6.8323,-7.18749 7.1875,6.83229 c 6.67741,6.34743 7.76011,7.5427 6.83229,7.5427 -0.19536,0 -3.42973,-3.23437 -7.18749,-7.1875 z M 277.09355,385.04512 c 0,-0.25957 0.98438,-1.24394 2.1875,-2.1875 1.98257,-1.55483 2.02678,-1.51062 0.47195,0.47195 -1.63297,2.08218 -2.65945,2.74435 -2.65945,1.71555 z m 447.34047,-1.71555 c -1.55484,-1.98257 -1.51063,-2.02678 0.47195,-0.47195 2.08219,1.63296 2.74435,2.65945 1.71555,2.65945 -0.25956,0 -1.24394,-0.98438 -2.1875,-2.1875 z"
           id="path3417"
           inkscape:connector-curvature="0" />
        <path
           style="fill:#afafaf"
           d="m 338.10917,827.1631 c 0.90233,-0.36109 1.98046,-0.31669 2.39583,0.0986 0.41537,0.41536 -0.32292,0.7108 -1.64062,0.65653 -1.45619,-0.06 -1.75238,-0.35618 -0.75521,-0.7552 z m 326.24993,0 c 0.90234,-0.36109 1.98048,-0.31669 2.39584,0.0986 0.41536,0.41536 -0.32292,0.7108 -1.64062,0.65653 -1.45619,-0.06 -1.75238,-0.35618 -0.75522,-0.7552 z M 383.18408,704.57951 c -1.55483,-1.98258 -1.51062,-2.02679 0.47195,-0.47195 2.08219,1.63296 2.74435,2.65945 1.71555,2.65945 -0.25956,0 -1.24394,-0.98438 -2.1875,-2.1875 z m 235.15941,1.71555 c 0,-0.25957 0.98437,-1.24394 2.1875,-2.1875 1.98257,-1.55484 2.02678,-1.51063 0.47195,0.47195 -1.63296,2.08218 -2.65945,2.74435 -2.65945,1.71555 z m -205.7036,-33.59055 -3.67136,-4.0625 4.0625,3.67137 c 3.78682,3.42222 4.63706,4.45363 3.67136,4.45363 -0.21513,0 -2.04325,-1.82812 -4.0625,-4.0625 z m 174.4536,3.67136 c 0,-0.21512 1.82813,-2.04324 4.0625,-4.06249 l 4.0625,-3.67137 -3.67136,4.0625 c -3.42222,3.78683 -4.45364,4.63706 -4.45364,3.67136 z M 246.08724,589.89203 c 0.0255,-2.0625 0.30563,-2.75493 0.62256,-1.53871 0.31693,1.21621 0.29608,2.90371 -0.0463,3.75 -0.3424,0.84628 -0.60171,-0.14879 -0.57624,-2.21129 z m 511.24991,0 c 0.0255,-2.0625 0.30562,-2.75493 0.62255,-1.53871 0.31692,1.21621 0.29609,2.90371 -0.0464,3.75 -0.34241,0.84628 -0.60171,-0.14879 -0.57623,-2.21129 z m -383.89493,-3.85416 c 0.06,-1.45619 0.35618,-1.75238 0.7552,-0.75522 0.36109,0.90234 0.31669,1.98048 -0.0986,2.39584 -0.41538,0.41536 -0.7108,-0.32292 -0.65653,-1.64062 z m 256.24995,0 c 0.06,-1.45619 0.35618,-1.75238 0.7552,-0.75522 0.36109,0.90234 0.31669,1.98048 -0.0986,2.39584 -0.41536,0.41536 -0.7108,-0.32292 -0.65653,-1.64062 z m -256.24995,-8.75 c 0.06,-1.45619 0.35618,-1.75238 0.7552,-0.75521 0.36109,0.90233 0.31669,1.98046 -0.0986,2.39583 -0.41538,0.41537 -0.7108,-0.32292 -0.65653,-1.64062 z m 256.24995,0 c 0.06,-1.45619 0.35618,-1.75238 0.7552,-0.75521 0.36109,0.90233 0.31669,1.98046 -0.0986,2.39583 -0.41536,0.41537 -0.7108,-0.32292 -0.65653,-1.64062 z m -383.60493,-3.64584 c 0.0255,-2.0625 0.30563,-2.75492 0.62256,-1.53871 0.31693,1.21621 0.29608,2.90371 -0.0463,3.75 -0.3424,0.84629 -0.60171,-0.14879 -0.57624,-2.21129 z m 511.24991,0 c 0.0255,-2.0625 0.30562,-2.75492 0.62255,-1.53871 0.31692,1.21621 0.29609,2.90371 -0.0464,3.75 -0.34241,0.84629 -0.60171,-0.14879 -0.57623,-2.21129 z M 409.59353,493.87591 c 0,-0.21513 1.82812,-2.04325 4.0625,-4.0625 l 4.0625,-3.67136 -3.67137,4.0625 c -3.42222,3.78682 -4.45363,4.63706 -4.45363,3.67136 z m 180.54633,-3.67136 -3.67137,-4.0625 4.0625,3.67136 c 2.23438,2.01925 4.0625,3.84737 4.0625,4.0625 0,0.9657 -1.03141,0.1155 -4.45363,-3.67136 z M 382.09353,460.0451 c 0,-0.25956 0.98438,-1.24393 2.1875,-2.1875 1.98258,-1.55483 2.02679,-1.51062 0.47195,0.47195 -1.63296,2.08219 -2.65945,2.74435 -2.65945,1.71555 z m 237.34051,-1.71555 c -1.55484,-1.98257 -1.51063,-2.02678 0.47195,-0.47195 2.08219,1.63297 2.74435,2.65945 1.71555,2.65945 -0.25956,0 -1.24394,-0.98437 -2.1875,-2.1875 z M 338.10917,335.91318 c 0.90233,-0.36109 1.98046,-0.31668 2.39583,0.0987 0.41537,0.41537 -0.32292,0.7108 -1.64062,0.65653 -1.45619,-0.06 -1.75238,-0.35618 -0.75521,-0.75521 z m 326.24993,0 c 0.90234,-0.36109 1.98048,-0.31668 2.39584,0.0987 0.41536,0.41537 -0.32292,0.7108 -1.64062,0.65653 -1.45619,-0.06 -1.75238,-0.35618 -0.75522,-0.75521 z"
           id="path3415"
           inkscape:connector-curvature="0" />
        <path
           style="fill:#8f8f8f"
           d="m 355.68409,737.0795 c -1.55484,-1.98257 -1.51063,-2.02679 0.47195,-0.47195 1.20312,0.94356 2.1875,1.92794 2.1875,2.1875 0,1.0288 -1.02649,0.36664 -2.65945,-1.71555 z m 290.15939,1.71555 c 0,-0.25956 0.98438,-1.24394 2.1875,-2.1875 1.98258,-1.55484 2.02679,-1.51062 0.47195,0.47195 -1.63296,2.08219 -2.65945,2.74435 -2.65945,1.71555 z M 348.18409,729.5795 c -1.55484,-1.98257 -1.51063,-2.02678 0.47195,-0.47195 1.20312,0.94356 2.1875,1.92794 2.1875,2.1875 0,1.0288 -1.02649,0.36664 -2.65945,-1.71555 z m 305.15939,1.71555 c 0,-0.25956 0.98438,-1.24394 2.1875,-2.1875 1.98258,-1.55483 2.02679,-1.51062 0.47195,0.47195 -1.63296,2.08219 -2.65945,2.74435 -2.65945,1.71555 z M 245.94224,594.78787 c 0.06,-1.45619 0.35618,-1.75238 0.75521,-0.75522 0.36109,0.90234 0.31668,1.98048 -0.0987,2.39584 -0.41536,0.41536 -0.7108,-0.32293 -0.65652,-1.64062 z m 511.24991,0 c 0.06,-1.45619 0.35617,-1.75238 0.7552,-0.75522 0.36109,0.90234 0.31669,1.98048 -0.0986,2.39584 -0.41536,0.41536 -0.7108,-0.32293 -0.65652,-1.64062 z M 331.13354,581.76703 c 0,-2.40625 0.25725,-3.39062 0.57166,-2.1875 0.3144,1.20313 0.3144,3.17187 0,4.375 -0.31441,1.20312 -0.57166,0.21875 -0.57166,-2.1875 z m 341.24994,0 c 0,-2.40625 0.25725,-3.39062 0.57166,-2.1875 0.3144,1.20313 0.3144,3.17187 0,4.375 -0.31441,1.20312 -0.57166,0.21875 -0.57166,-2.1875 z m -298.84258,0 c 0,-1.71875 0.28372,-2.42187 0.63048,-1.5625 0.34677,0.85938 0.34677,2.26562 0,3.125 -0.34676,0.85937 -0.63048,0.15625 -0.63048,-1.5625 z m 256.24995,0 c 0,-1.71875 0.28372,-2.42187 0.63049,-1.5625 0.34676,0.85938 0.34676,2.26562 0,3.125 -0.34677,0.85937 -0.63049,0.15625 -0.63049,-1.5625 z M 245.94224,568.53787 c 0.06,-1.45619 0.35618,-1.75237 0.75521,-0.75521 0.36109,0.90233 0.31668,1.98046 -0.0987,2.39583 -0.41536,0.41537 -0.7108,-0.32292 -0.65652,-1.64062 z m 511.24991,0 c 0.06,-1.45619 0.35617,-1.75237 0.7552,-0.75521 0.36109,0.90233 0.31669,1.98046 -0.0986,2.39583 -0.41536,0.41537 -0.7108,-0.32292 -0.65652,-1.64062 z M 347.09354,435.04511 c 0,-0.25956 0.98437,-1.24394 2.1875,-2.1875 1.98257,-1.55484 2.02679,-1.51063 0.47195,0.47195 -1.63296,2.08218 -2.65945,2.74435 -2.65945,1.71555 z m 307.34049,-1.71555 c -1.55484,-1.98258 -1.51062,-2.02679 0.47195,-0.47195 2.08219,1.63296 2.74435,2.65945 1.71555,2.65945 -0.25956,0 -1.24394,-0.98438 -2.1875,-2.1875 z m -299.84049,-5.78445 c 0,-0.25956 0.98437,-1.24394 2.1875,-2.1875 1.98257,-1.55484 2.02678,-1.51063 0.47195,0.47195 -1.63297,2.08219 -2.65945,2.74435 -2.65945,1.71555 z m 292.34049,-1.71555 c -1.55483,-1.98258 -1.51062,-2.02679 0.47195,-0.47195 1.20313,0.94356 2.1875,1.92794 2.1875,2.1875 0,1.0288 -1.02648,0.36664 -2.65945,-1.71555 z"
           id="path3413"
           inkscape:connector-curvature="0" />
        <path
           style="fill:#707070"
           d="m 351.93409,733.3295 c -1.55484,-1.98257 -1.51063,-2.02679 0.47195,-0.47195 1.20312,0.94356 2.1875,1.92794 2.1875,2.1875 0,1.0288 -1.02649,0.36664 -2.65945,-1.71555 z m 297.65939,1.71555 c 0,-0.25956 0.98438,-1.24394 2.1875,-2.1875 1.98258,-1.55484 2.02679,-1.51062 0.47195,0.47195 -1.63296,2.08219 -2.65945,2.74435 -2.65945,1.71555 z M 288.54092,589.26703 c 0,-1.71875 0.28371,-2.42188 0.63048,-1.5625 0.34677,0.85937 0.34677,2.26562 0,3.125 -0.34677,0.85937 -0.63048,0.15625 -0.63048,-1.5625 z m 426.24991,0 c 0,-1.71875 0.28373,-2.42188 0.63049,-1.5625 0.34676,0.85937 0.34676,2.26562 0,3.125 -0.34676,0.85937 -0.63049,0.15625 -0.63049,-1.5625 z m -383.74993,-1.25 c 0,-1.71875 0.28373,-2.42188 0.63049,-1.5625 0.34676,0.85937 0.34676,2.26562 0,3.125 -0.34676,0.85937 -0.63049,0.15625 -0.63049,-1.5625 z m 341.24994,0 c 0,-1.71875 0.28373,-2.42188 0.63049,-1.5625 0.34676,0.85937 0.34676,2.26562 0,3.125 -0.34676,0.85937 -0.63049,0.15625 -0.63049,-1.5625 z m -341.24994,-12.5 c 0,-1.71875 0.28373,-2.42187 0.63049,-1.5625 0.34676,0.85938 0.34676,2.26563 0,3.125 -0.34676,0.85938 -0.63049,0.15625 -0.63049,-1.5625 z m 341.24994,0 c 0,-1.71875 0.28373,-2.42187 0.63049,-1.5625 0.34676,0.85938 0.34676,2.26563 0,3.125 -0.34676,0.85938 -0.63049,0.15625 -0.63049,-1.5625 z m -383.74992,-1.25 c 0,-1.71875 0.28371,-2.42187 0.63048,-1.5625 0.34677,0.85938 0.34677,2.26563 0,3.125 -0.34677,0.85938 -0.63048,0.15625 -0.63048,-1.5625 z m 426.24991,0 c 0,-1.71875 0.28373,-2.42187 0.63049,-1.5625 0.34676,0.85938 0.34676,2.26563 0,3.125 -0.34676,0.85938 -0.63049,0.15625 -0.63049,-1.5625 z M 350.84354,431.29511 c 0,-0.25956 0.98437,-1.24394 2.1875,-2.1875 1.98257,-1.55484 2.02679,-1.51063 0.47195,0.47195 -1.63296,2.08219 -2.65945,2.74435 -2.65945,1.71555 z m 299.84049,-1.71555 c -1.55484,-1.98258 -1.51062,-2.02679 0.47195,-0.47195 2.08219,1.63296 2.74435,2.65945 1.71555,2.65945 -0.25956,0 -1.24394,-0.98438 -2.1875,-2.1875 z"
           id="path3411"
           inkscape:connector-curvature="0" />
        <path
           style="fill:#505050"
           d="m 359.7909,805.51699 c 0,-1.71875 0.28372,-2.42188 0.63049,-1.5625 0.34676,0.85937 0.34676,2.26562 0,3.125 -0.34677,0.85937 -0.63049,0.15625 -0.63049,-1.5625 z m 283.74995,0 c 0,-1.71875 0.28372,-2.42188 0.63048,-1.5625 0.34677,0.85937 0.34677,2.26562 0,3.125 -0.34676,0.85937 -0.63048,0.15625 -0.63048,-1.5625 z m -348.9473,-9.375 c -3.03629,-3.09375 -5.23927,-5.625 -4.89552,-5.625 0.34375,0 3.10923,2.53125 6.14552,5.625 3.03628,3.09375 5.23927,5.625 4.89552,5.625 -0.34375,0 -3.10924,-2.53125 -6.14552,-5.625 z m 413.69768,0.3125 c 5.17995,-5.51899 6.30224,-6.51136 6.30224,-5.57276 0,0.20061 -2.67187,2.87249 -5.9375,5.9375 l -5.9375,5.57276 5.57276,-5.9375 z m -236.94148,-184.99997 -2.38123,-2.8125 2.8125,2.38124 c 2.64305,2.23778 3.38155,3.24376 2.38123,3.24376 -0.2372,0 -1.50282,-1.26562 -2.8125,-2.8125 z m 60.11875,0.3125 c 1.24437,-1.375 2.54373,-2.5 2.88748,-2.5 0.34375,0 -0.39311,1.125 -1.63748,2.5 -1.24436,1.375 -2.54372,2.5 -2.88747,2.5 -0.34375,0 0.39311,-1.125 1.63747,-2.5 z M 203.44225,594.78787 c 0.06,-1.45619 0.35618,-1.75238 0.75521,-0.75522 0.36109,0.90234 0.31668,1.98048 -0.0987,2.39584 -0.41536,0.41536 -0.7108,-0.32293 -0.65652,-1.64062 z m 596.24989,0 c 0.06,-1.45619 0.35618,-1.75238 0.7552,-0.75522 0.36109,0.90234 0.31669,1.98048 -0.0986,2.39584 -0.41537,0.41536 -0.7108,-0.32293 -0.65653,-1.64062 z M 288.68401,581.76703 c 0,-3.09375 0.24376,-4.35937 0.54171,-2.8125 0.29794,1.54688 0.29794,4.07812 0,5.625 -0.29795,1.54687 -0.54171,0.28125 -0.54171,-2.8125 z m 426.24991,0 c 0,-3.09375 0.24378,-4.35937 0.54171,-2.8125 0.29795,1.54688 0.29795,4.07812 0,5.625 -0.29793,1.54687 -0.54171,0.28125 -0.54171,-2.8125 z M 203.44225,568.53787 c 0.06,-1.45619 0.35618,-1.75237 0.75521,-0.75521 0.36109,0.90233 0.31668,1.98046 -0.0987,2.39583 -0.41536,0.41537 -0.7108,-0.32292 -0.65652,-1.64062 z m 596.24989,0 c 0.06,-1.45619 0.35618,-1.75237 0.7552,-0.75521 0.36109,0.90233 0.31669,1.98046 -0.0986,2.39583 -0.41537,0.41537 -0.7108,-0.32292 -0.65653,-1.64062 z M 471.46852,551.76704 c 1.24436,-1.375 2.54372,-2.5 2.88747,-2.5 0.34375,0 -0.39311,1.125 -1.63747,2.5 -1.24437,1.375 -2.54373,2.5 -2.88748,2.5 -0.34375,0 0.39311,-1.125 1.63748,-2.5 z m 59.88122,-0.3125 -2.38124,-2.8125 2.8125,2.38123 c 1.54688,1.30968 2.8125,2.5753 2.8125,2.8125 0,1.00032 -1.00598,0.26182 -3.24376,-2.38123 z M 708.34347,367.39207 c -3.03629,-3.09375 -5.23927,-5.625 -4.89552,-5.625 0.34375,0 3.10923,2.53125 6.14552,5.625 3.03629,3.09375 5.23928,5.625 4.89553,5.625 -0.34375,0 -3.10924,-2.53125 -6.14553,-5.625 z m -413.12492,-0.625 c 2.6853,-2.75 5.16362,-5 5.50737,-5 0.34375,0 -1.57207,2.25 -4.25737,5 -2.6853,2.75 -5.16362,5 -5.50737,5 -0.34375,0 1.57207,-2.25 4.25737,-5 z m 64.57235,-8.75 c 0,-1.71875 0.28372,-2.42187 0.63049,-1.5625 0.34676,0.85938 0.34676,2.26563 0,3.125 -0.34677,0.85938 -0.63049,0.15625 -0.63049,-1.5625 z m 283.74995,0 c 0,-1.71875 0.28372,-2.42187 0.63048,-1.5625 0.34677,0.85938 0.34677,2.26563 0,3.125 -0.34676,0.85938 -0.63048,0.15625 -0.63048,-1.5625 z"
           id="path3409"
           inkscape:connector-curvature="0" />
        <path
           style="fill:#2e2e2e"
           d="m 353.18409,790.82949 c -1.55484,-1.98257 -1.51063,-2.02679 0.47195,-0.47195 1.20312,0.94356 2.1875,1.92794 2.1875,2.1875 0,1.0288 -1.02649,0.36664 -2.65945,-1.71555 z m 295.15939,1.71555 c 0,-0.25956 0.98438,-1.24394 2.1875,-2.1875 1.98258,-1.55484 2.02679,-1.51062 0.47195,0.47195 -1.63296,2.08219 -2.65945,2.74435 -2.65945,1.71555 z M 276.93411,777.07949 c -1.55484,-1.98257 -1.51063,-2.02678 0.47194,-0.47195 1.20313,0.94357 2.1875,1.92794 2.1875,2.1875 0,1.0288 -1.02648,0.36664 -2.65944,-1.71555 z m 447.65936,1.71555 c 0,-0.25956 0.98437,-1.24393 2.1875,-2.1875 1.98257,-1.55483 2.02678,-1.51062 0.47195,0.47195 -1.63296,2.08219 -2.65945,2.74435 -2.65945,1.71555 z m -406.31721,-17.96554 -4.30771,-4.6875 4.68749,4.30771 c 4.36303,4.00951 5.26224,5.06729 4.30772,5.06729 -0.20889,0 -2.31827,-2.10938 -4.6875,-4.6875 z m 366.31722,0.3125 c 2.33222,-2.40625 4.52166,-4.375 4.86541,-4.375 0.34375,0 -1.28319,1.96875 -3.61541,4.375 -2.33223,2.40625 -4.52167,4.375 -4.86542,4.375 -0.34375,0 1.28319,-1.96875 3.61542,-4.375 z m -290.23432,1.02111 c 0.90233,-0.36109 1.98046,-0.31669 2.39583,0.0986 0.41536,0.41537 -0.32292,0.7108 -1.64062,0.65653 -1.45619,-0.06 -1.75238,-0.35618 -0.75521,-0.7552 z m 213.74996,0 c 0.90233,-0.36109 1.98047,-0.31669 2.39583,0.0986 0.41536,0.41537 -0.32292,0.7108 -1.64062,0.65653 -1.45619,-0.06 -1.75238,-0.35618 -0.75521,-0.7552 z M 416.04089,741.767 c 0,-1.71875 0.28372,-2.42187 0.63049,-1.5625 0.34676,0.85938 0.34676,2.26562 0,3.125 -0.34677,0.85937 -0.63049,0.15625 -0.63049,-1.5625 z m 171.24997,0 c 0,-1.71875 0.28372,-2.42187 0.63048,-1.5625 0.34677,0.85938 0.34677,2.26562 0,3.125 -0.34676,0.85937 -0.63048,0.15625 -0.63048,-1.5625 z M 757.19215,602.28786 c 0.06,-1.45618 0.35617,-1.75237 0.7552,-0.75521 0.36109,0.90234 0.31669,1.98048 -0.0986,2.39584 -0.41536,0.41536 -0.7108,-0.32293 -0.65652,-1.64063 z m -426.24992,-7.49999 c 0.06,-1.45619 0.35617,-1.75238 0.7552,-0.75522 0.36109,0.90234 0.31669,1.98048 -0.0986,2.39584 -0.41537,0.41536 -0.7108,-0.32293 -0.65652,-1.64062 z m 341.24994,0 c 0.06,-1.45619 0.35617,-1.75238 0.7552,-0.75522 0.36108,0.90234 0.31668,1.98048 -0.0986,2.39584 -0.41536,0.41536 -0.7108,-0.32293 -0.65652,-1.64062 z m -468.60492,-4.89584 c 0.0255,-2.0625 0.30562,-2.75493 0.62255,-1.53871 0.31693,1.21621 0.29609,2.90371 -0.0463,3.75 -0.34241,0.84628 -0.60171,-0.14879 -0.57624,-2.21129 z m 596.24989,0 c 0.0255,-2.0625 0.30563,-2.75493 0.62255,-1.53871 0.31693,1.21621 0.29609,2.90371 -0.0464,3.75 -0.34242,0.84628 -0.60172,-0.14879 -0.57624,-2.21129 z m -383.79625,-4.375 c 0,-1.71875 0.28372,-2.42188 0.63049,-1.5625 0.34676,0.85937 0.34676,2.26562 0,3.125 -0.34677,0.85937 -0.63049,0.15625 -0.63049,-1.5625 z m 0,-7.5 c 0,-1.71875 0.28372,-2.42187 0.63049,-1.5625 0.34676,0.85938 0.34676,2.26563 0,3.125 -0.34677,0.85938 -0.63049,0.15625 -0.63049,-1.5625 z m -212.45364,-4.375 c 0.0255,-2.0625 0.30562,-2.75492 0.62255,-1.53871 0.31693,1.21621 0.29609,2.90371 -0.0463,3.75 -0.34241,0.84629 -0.60171,-0.14879 -0.57624,-2.21129 z m 596.24989,0 c 0.0255,-2.0625 0.30563,-2.75492 0.62255,-1.53871 0.31693,1.21621 0.29609,2.90371 -0.0464,3.75 -0.34242,0.84629 -0.60172,-0.14879 -0.57624,-2.21129 z m -468.89491,-5.10416 c 0.06,-1.45619 0.35617,-1.75237 0.7552,-0.75521 0.36109,0.90233 0.31669,1.98046 -0.0986,2.39583 -0.41537,0.41537 -0.7108,-0.32292 -0.65652,-1.64062 z m 341.24994,0 c 0.06,-1.45619 0.35617,-1.75237 0.7552,-0.75521 0.36108,0.90233 0.31668,1.98046 -0.0986,2.39583 -0.41536,0.41537 -0.7108,-0.32292 -0.65652,-1.64062 z m 84.99998,-7.5 c 0.06,-1.45619 0.35617,-1.75237 0.7552,-0.75521 0.36109,0.90234 0.31669,1.98046 -0.0986,2.39584 -0.41536,0.41536 -0.7108,-0.32293 -0.65652,-1.64063 z M 416.04089,421.76706 c 0,-1.71875 0.28372,-2.42187 0.63049,-1.5625 0.34676,0.85938 0.34676,2.26562 0,3.125 -0.34677,0.85937 -0.63049,0.15625 -0.63049,-1.5625 z m 171.24997,0 c 0,-1.71875 0.28372,-2.42187 0.63048,-1.5625 0.34677,0.85938 0.34677,2.26562 0,3.125 -0.34676,0.85937 -0.63048,0.15625 -0.63048,-1.5625 z m -268.94732,-19.375 c 2.33223,-2.40625 4.52167,-4.375 4.86542,-4.375 0.34375,0 -1.28319,1.96875 -3.61542,4.375 -2.33222,2.40625 -4.52166,4.375 -4.86541,4.375 -0.34375,0 1.28319,-1.96875 3.61541,-4.375 z m 366.18265,-0.3125 -4.30771,-4.6875 4.6875,4.30772 c 2.57812,2.36923 4.68749,4.47861 4.68749,4.6875 0,0.95452 -1.05777,0.0554 -5.06728,-4.30772 z m -290.16703,-1.16638 c 0.90233,-0.36109 1.98046,-0.31669 2.39583,0.0986 0.41536,0.41538 -0.32292,0.7108 -1.64062,0.65653 -1.45619,-0.06 -1.75238,-0.35618 -0.75521,-0.7552 z m 213.74996,0 c 0.90233,-0.36109 1.98047,-0.31669 2.39583,0.0986 0.41536,0.41538 -0.32292,0.7108 -1.64062,0.65653 -1.45619,-0.06 -1.75238,-0.35618 -0.75521,-0.7552 z M 275.84355,387.54512 c 0,-0.25957 0.98438,-1.24394 2.1875,-2.1875 1.98257,-1.55484 2.02678,-1.51062 0.47195,0.47195 -1.63297,2.08218 -2.65945,2.74435 -2.65945,1.71555 z m 449.84047,-1.71555 c -1.55484,-1.98257 -1.51063,-2.02679 0.47195,-0.47195 2.08219,1.63296 2.74435,2.65945 1.71555,2.65945 -0.25956,0 -1.24394,-0.98438 -2.1875,-2.1875 z M 352.09354,373.79513 c 0,-0.25957 0.98437,-1.24395 2.1875,-2.1875 1.98257,-1.55484 2.02678,-1.51063 0.47195,0.47194 -1.63296,2.08218 -2.65945,2.74435 -2.65945,1.71556 z m 297.34049,-1.71556 c -1.55483,-1.98257 -1.51062,-2.02678 0.47195,-0.47194 2.08219,1.63296 2.74435,2.65944 1.71555,2.65944 -0.25956,0 -1.24394,-0.98438 -2.1875,-2.1875 z"
           id="path3407"
           inkscape:connector-curvature="0"
           sodipodi:nodetypes="ssssssssssssssssscssssssssccccccccccsccssssscsccccsccccsccccsccccscccsscsscsscsccccsccccsccccsccccscccsccssssssssssscsssccccccccccssssssssssssssss" />
        <path
           style="fill:#ffffff"
           d="m 331.40085,825.00633 c -6.31583,-2.75086 -27.86587,-20.85755 -41.24759,-34.6569 -55.70132,-57.43973 -85.77154,-130.56558 -85.77154,-208.5824 0,-67.32671 22.80888,-132.07243 65.48581,-185.88925 18.11875,-22.84827 53.31758,-54.96484 63.6241,-58.05275 13.00693,-3.89698 26.09256,5.91605 26.09256,19.56704 0,8.67265 -2.62413,12.33566 -17.42216,24.31954 -51.10329,41.38491 -81.33764,92.03854 -92.92321,155.68043 -3.96598,21.78593 -3.96598,66.96405 0,88.74998 11.58557,63.64189 41.81992,114.29552 92.92321,155.68043 14.85194,12.02754 17.42037,15.63065 17.42683,24.44719 0.006,8.1172 -3.63212,13.85775 -11.20777,17.68484 -6.27954,3.17233 -11.38554,3.48863 -16.98024,1.05185 z m 324.40508,-1.05185 c -7.57565,-3.82709 -11.21372,-9.56764 -11.20777,-17.68484 0.006,-8.81654 2.57489,-12.41965 17.42683,-24.44719 51.10328,-41.38491 81.33765,-92.03854 92.92321,-155.68043 3.96597,-21.78593 3.96597,-66.96405 0,-88.74998 -11.58556,-63.64189 -41.81993,-114.29552 -92.92321,-155.68043 -14.79803,-11.98388 -17.42216,-15.64689 -17.42216,-24.31954 0,-13.65099 13.08563,-23.46402 26.09256,-19.56704 10.30652,3.08791 45.50534,35.20448 63.62409,58.05275 63.773,80.41957 82.4985,185.70296 49.87133,280.39959 -11.387,33.04947 -28.54124,64.48107 -49.87133,91.37891 -11.36245,14.32839 -31.13063,34.26426 -45.29056,45.67474 -17.78802,14.33413 -22.74209,15.91825 -33.22299,10.62346 z m -274.5337,-67.09975 c -34.8511,-23.27268 -66.68996,-66.15548 -80.99941,-109.09571 -8.29692,-24.89762 -9.9626,-35.93105 -9.9626,-65.99199 0,-23.25212 0.38249,-28.64431 2.83739,-39.99999 10.20391,-47.20051 35.19677,-90.39554 69.81501,-120.66089 16.84894,-14.73035 24.45035,-19.33909 31.89694,-19.33909 12.56412,0 19.8637,6.60855 20.74414,18.78034 0.71716,9.91477 -1.52061,13.40852 -15.09457,23.56661 -35.61098,26.64949 -58.25177,62.19351 -66.76534,104.81565 -3.04244,15.23152 -3.04244,50.44322 0,65.67474 8.51357,42.62214 31.15436,78.16616 66.76534,104.81565 13.57396,10.15809 15.81173,13.65184 15.09457,23.56661 -0.88044,12.17179 -8.18002,18.78034 -20.74414,18.78034 -5.16987,0 -7.48404,-0.83665 -13.58733,-4.91227 z m 217.34399,2.83342 c -6.16483,-3.03853 -9.43884,-8.48868 -10.0329,-16.70149 -0.71716,-9.91477 1.52061,-13.40852 15.09457,-23.56661 29.03018,-21.72474 50.55668,-50.95355 60.94995,-82.75818 6.34275,-19.40955 8.00508,-30.80898 8.00508,-54.89484 0,-24.08586 -1.66233,-35.48529 -8.00508,-54.89484 -10.39327,-31.80463 -31.91977,-61.03344 -60.94995,-82.75818 -13.57396,-10.15809 -15.81173,-13.65184 -15.09457,-23.56661 0.88044,-12.17179 8.18002,-18.78034 20.74414,-18.78034 7.44659,0 15.048,4.60874 31.89694,19.33909 34.61824,30.26535 59.6111,73.46038 69.81501,120.66089 2.4549,11.35568 2.8374,16.74787 2.8374,39.99999 0,30.06094 -1.66569,41.09437 -9.9626,65.99199 -14.30946,42.94023 -46.14832,85.82303 -80.99942,109.09571 -6.20504,4.14357 -8.36084,4.90782 -13.77624,4.8838 -3.53103,-0.0156 -8.26608,-0.93832 -10.52233,-2.05038 z"
           id="path3405"
           inkscape:connector-curvature="0"
           sodipodi:nodetypes="sssssssssssssscssssssssssssssssssssssssssssssssssssssscs" />
      </g>
    </g>
  </g>
</svg>
