<?xml version="1.0" encoding="UTF-8" standalone="no"?>
<!-- Created with Inkscape (http://www.inkscape.org/) -->

<svg
   xmlns:dc="http://purl.org/dc/elements/1.1/"
   xmlns:cc="http://creativecommons.org/ns#"
   xmlns:rdf="http://www.w3.org/1999/02/22-rdf-syntax-ns#"
   xmlns:svg="http://www.w3.org/2000/svg"
   xmlns="http://www.w3.org/2000/svg"
   xmlns:sodipodi="http://sodipodi.sourceforge.net/DTD/sodipodi-0.dtd"
   xmlns:inkscape="http://www.inkscape.org/namespaces/inkscape"
   width="164mm"
   height="161mm"
   viewBox="0 0 581.10223 570.47192"
   id="svg2"
   version="1.1"
   inkscape:version="0.91 r13725"
   sodipodi:docname="logo.svg">
  <defs
     id="defs4" />
  <sodipodi:namedview
     id="base"
     pagecolor="#ffffff"
     bordercolor="#666666"
     borderopacity="1.0"
     inkscape:pageopacity="0.0"
     inkscape:pageshadow="2"
     inkscape:zoom="0.35"
     inkscape:cx="68.504172"
     inkscape:cy="597.68486"
     inkscape:document-units="px"
     inkscape:current-layer="layer1"
     showgrid="false"
     inkscape:window-width="1366"
     inkscape:window-height="719"
     inkscape:window-x="0"
     inkscape:window-y="25"
     inkscape:window-maximized="1" />
  <metadata
     id="metadata7">
    <rdf:RDF>
      <cc:Work
         rdf:about="">
        <dc:format>image/svg+xml</dc:format>
        <dc:type
           rdf:resource="http://purl.org/dc/dcmitype/StillImage" />
        <dc:title></dc:title>
      </cc:Work>
    </rdf:RDF>
  </metadata>
  <g
     inkscape:label="Layer 1"
     inkscape:groupmode="layer"
     id="layer1"
     transform="translate(0,-481.89008)">
    <g
       id="g3374"
       transform="translate(-184.95072,210.59524)">
      <path
         style="fill:#a5cfd4"
         d="m 374.50893,838.32007 c 0.85937,-0.34676 2.26562,-0.34676 3.125,0 0.85937,0.34676 0.15625,0.63049 -1.5625,0.63049 -1.71875,0 -2.42188,-0.28373 -1.5625,-0.63049 z m 35,0 c 0.85937,-0.34676 2.26562,-0.34676 3.125,0 0.85937,0.34676 0.15625,0.63049 -1.5625,0.63049 -1.71875,0 -2.42188,-0.28373 -1.5625,-0.63049 z m -48.67188,-1.27604 c 0.90234,-0.36108 1.98046,-0.31668 2.39584,0.0986 0.41536,0.41536 -0.32293,0.7108 -1.64063,0.65652 -1.45618,-0.06 -1.75237,-0.35617 -0.75521,-0.7552 z m 63.75,0 c 0.90234,-0.36108 1.98048,-0.31668 2.39584,0.0986 0.41536,0.41536 -0.32293,0.7108 -1.64063,0.65652 -1.45618,-0.06 -1.75237,-0.35617 -0.75521,-0.7552 z M 212.16198,771.96042 c -1.55484,-1.98258 -1.51063,-2.02679 0.47195,-0.47195 1.20312,0.94356 2.1875,1.92794 2.1875,2.1875 0,1.0288 -1.02649,0.36664 -2.65945,-1.71555 z m 361.40945,0.46555 c 0,-0.25956 0.98437,-1.24394 2.1875,-2.1875 1.98257,-1.55484 2.02678,-1.51063 0.47195,0.47195 -1.63297,2.08219 -2.65945,2.74435 -2.65945,1.71555 z m -274.80264,-9.52805 c 0,-1.71875 0.28372,-2.42188 0.63049,-1.5625 0.34676,0.85937 0.34676,2.26562 0,3.125 -0.34677,0.85937 -0.63049,0.15625 -0.63049,-1.5625 z m -102.151,-5.3125 -3.67136,-4.0625 4.0625,3.67136 c 3.78682,3.42223 4.63706,4.45364 3.67136,4.45364 -0.21513,0 -2.04325,-1.82813 -4.0625,-4.0625 z m 389.45364,3.67136 c 0,-0.21512 1.82812,-2.04325 4.0625,-4.0625 l 4.0625,-3.67136 -3.67137,4.0625 c -3.42222,3.78682 -4.45363,4.63706 -4.45363,3.67136 z m 15,-16.33081 c 0,-0.25956 0.98437,-1.24394 2.1875,-2.1875 1.98257,-1.55484 2.02678,-1.51063 0.47195,0.47195 -1.63297,2.08219 -2.65945,2.74435 -2.65945,1.71555 z m -418.90945,-2.96555 c -1.55484,-1.98258 -1.51062,-2.02679 0.47195,-0.47195 1.20312,0.94356 2.1875,1.92794 2.1875,2.1875 0,1.0288 -1.02649,0.36664 -2.65945,-1.71555 z M 118.67011,603.41876 c 0.06,-1.45619 0.35618,-1.75238 0.75521,-0.75522 0.36109,0.90234 0.31668,1.98048 -0.0987,2.39584 -0.41536,0.41536 -0.7108,-0.32292 -0.65652,-1.64062 z m -1.25,-10 c 0.06,-1.45619 0.35618,-1.75238 0.75521,-0.75522 0.36109,0.90234 0.31668,1.98048 -0.0987,2.39584 -0.41536,0.41536 -0.7108,-0.32292 -0.65652,-1.64062 z m 551.25,0 c 0.06,-1.45619 0.35618,-1.75238 0.7552,-0.75522 0.36109,0.90234 0.31669,1.98048 -0.0986,2.39584 -0.41536,0.41536 -0.7108,-0.32292 -0.65653,-1.64062 z m -319.18202,-5.67595 c 0.84792,-0.85428 1.85655,-1.23834 2.24141,-0.85348 0.38486,0.38487 -0.30889,1.08382 -1.54166,1.55323 -1.7815,0.67835 -1.92508,0.53477 -0.69975,-0.69975 z m -233.17298,-7.96989 c 0.0255,-2.0625 0.30562,-2.75492 0.62255,-1.53871 0.31693,1.21621 0.29609,2.90371 -0.0463,3.75 -0.34241,0.84628 -0.60171,-0.14879 -0.57624,-2.21129 z m 553.70368,-0.625 c 0,-1.71875 0.28372,-2.42188 0.63049,-1.5625 0.34676,0.85937 0.34676,2.26562 0,3.125 -0.34677,0.85937 -0.63049,0.15625 -0.63049,-1.5625 z m -304.18174,-3.35389 c 0.90234,-0.36108 1.98046,-0.31668 2.39584,0.0986 0.41536,0.41536 -0.32293,0.7108 -1.64063,0.65652 -1.45618,-0.06 -1.75237,-0.35617 -0.75521,-0.7552 z M 116.31511,543.52292 c 0.0255,-2.0625 0.30562,-2.75492 0.62255,-1.53871 0.31693,1.21621 0.29609,2.90371 -0.0463,3.75 -0.34241,0.84628 -0.60171,-0.14879 -0.57624,-2.21129 z m 553.70368,0.625 c 0,-1.71875 0.28372,-2.42188 0.63049,-1.5625 0.34676,0.85937 0.34676,2.26562 0,3.125 -0.34677,0.85937 -0.63049,0.15625 -0.63049,-1.5625 z m -257.93174,-4.60389 c 0.90234,-0.36108 1.98048,-0.31668 2.39584,0.0986 0.41536,0.41536 -0.32293,0.7108 -1.64063,0.65652 -1.45618,-0.06 -1.75237,-0.35617 -0.75521,-0.7552 z m -294.66694,-9.87527 c 0.06,-1.45619 0.35618,-1.75238 0.75521,-0.75522 0.36109,0.90234 0.31668,1.98047 -0.0987,2.39584 -0.41536,0.41536 -0.7108,-0.32292 -0.65652,-1.64062 z m 551.25,0 c 0.06,-1.45619 0.35618,-1.75238 0.7552,-0.75522 0.36109,0.90234 0.31669,1.98047 -0.0986,2.39584 -0.41536,0.41536 -0.7108,-0.32292 -0.65653,-1.64062 z m -550,-10 c 0.06,-1.45619 0.35618,-1.75238 0.75521,-0.75522 0.36109,0.90234 0.31668,1.98047 -0.0987,2.39584 -0.41536,0.41536 -0.7108,-0.32292 -0.65652,-1.64062 z m 265.52632,-5.52084 c -0.4249,-0.6875 -0.17685,-1.25 0.55122,-1.25 0.72808,0 1.32378,0.5625 1.32378,1.25 0,0.6875 -0.24805,1.25 -0.55123,1.25 -0.30317,0 -0.89887,-0.5625 -1.32377,-1.25 z m 21.13123,-66.5625 -2.38123,-2.8125 2.8125,2.38124 c 1.54687,1.30967 2.8125,2.5753 2.8125,2.8125 0,1.00031 -1.00599,0.26181 -3.24377,-2.38124 z M 181.07143,382.42597 c 0,-0.25956 0.98437,-1.24394 2.1875,-2.1875 1.98257,-1.55484 2.02678,-1.51063 0.47194,0.47195 -1.63296,2.08219 -2.65944,2.74435 -2.65944,1.71555 z m 422.34055,-1.71555 c -1.55484,-1.98258 -1.51063,-2.02679 0.47195,-0.47195 2.08218,1.63296 2.74435,2.65945 1.71555,2.65945 -0.25957,0 -1.24394,-0.98438 -2.1875,-2.1875 z m -406.71555,-15.3125 c 2.6853,-2.75 5.16362,-5 5.50737,-5 0.34375,0 -1.57207,2.25 -4.25737,5 -2.68531,2.75 -5.16362,5 -5.50737,5 -0.34375,0 1.57206,-2.25 4.25737,-5 z m 392.42136,-0.3125 -3.67136,-4.0625 4.0625,3.67136 c 3.78682,3.42223 4.63706,4.45364 3.67136,4.45364 -0.21513,0 -2.04325,-1.82813 -4.0625,-4.0625 z M 211.07143,352.42598 c 0,-0.25957 0.98437,-1.24395 2.1875,-2.1875 1.98257,-1.55484 2.02678,-1.51063 0.47195,0.47194 -1.63297,2.08218 -2.65945,2.74435 -2.65945,1.71556 z m 362.34055,-1.71556 c -1.55484,-1.98257 -1.51063,-2.02678 0.47195,-0.47194 2.08218,1.63296 2.74435,2.65944 1.71555,2.65944 -0.25957,0 -1.24394,-0.98438 -2.1875,-2.1875 z M 350.83705,287.04403 c 0.90234,-0.36109 1.98046,-0.31668 2.39584,0.0987 0.41536,0.41537 -0.32293,0.71081 -1.64063,0.65653 -1.45618,-0.06 -1.75237,-0.35618 -0.75521,-0.75521 z m 83.75,0 c 0.90234,-0.36109 1.98048,-0.31668 2.39584,0.0987 0.41536,0.41537 -0.32293,0.71081 -1.64063,0.65653 -1.45618,-0.06 -1.75237,-0.35618 -0.75521,-0.75521 z m -73.75,-1.25 c 0.90234,-0.36109 1.98046,-0.31668 2.39584,0.0987 0.41536,0.41537 -0.32293,0.71081 -1.64063,0.65653 -1.45618,-0.06 -1.75237,-0.35618 -0.75521,-0.75521 z m 63.75,0 c 0.90234,-0.36109 1.98048,-0.31668 2.39584,0.0987 0.41536,0.41537 -0.32293,0.71081 -1.64063,0.65653 -1.45618,-0.06 -1.75237,-0.35618 -0.75521,-0.75521 z m -50.67934,-1.26235 c 1.21622,-0.31693 2.90372,-0.29609 3.75,0.0463 0.84629,0.34241 -0.14878,0.60171 -2.21128,0.57624 -2.0625,-0.0255 -2.75493,-0.30562 -1.53872,-0.62255 z m 36.25,0 c 1.21622,-0.31693 2.90372,-0.29609 3.75,0.0463 0.84629,0.34241 -0.14878,0.60171 -2.21128,0.57624 -2.0625,-0.0255 -2.75493,-0.30562 -1.53872,-0.62255 z"
         id="path3388"
         inkscape:connector-curvature="0" />
      <path
         style="fill:#43c1c6"
         d="m 461.78365,587.68611 c -56.95979,-7.323 -103.17015,-50.76806 -114.17113,-107.33895 -2.47542,-12.72952 -2.36794,-38.06221 0.21481,-50.625 12.89665,-62.73066 66.83924,-106.875 130.59692,-106.875 64.03601,0 118.68087,45.03486 130.57611,107.61264 2.32961,12.25546 2.64702,36.50614 0.62386,47.6632 -4.70144,25.92687 -17.02011,50.282 -34.86421,68.92968 -16.15215,16.87953 -32.2677,27.05872 -54.46076,34.39947 -21.16075,6.9993 -38.33297,8.82873 -58.5156,6.23396 z m 42.83791,-16.06105 c 34.30509,-7.07803 66.5284,-33.31519 81.97434,-66.7459 7.90176,-17.10233 9.96671,-27.61925 9.84807,-50.157 -0.0948,-17.99675 -0.44469,-21.11695 -3.49399,-31.15135 -12.71866,-41.85354 -43.95042,-72.20706 -85.77573,-83.36374 -15.34342,-4.09277 -42.33374,-4.11024 -57.5,-0.0372 -42.16363,11.32339 -73.0473,41.31605 -85.77703,83.30231 -3.11677,10.28001 -3.41257,13.0283 -3.43072,31.875 -0.0166,17.27188 0.4144,22.18949 2.65132,30.24809 7.1741,25.84495 23.1612,49.38566 44.54584,65.59294 11.0398,8.36698 31.22331,17.69108 44.23337,20.43429 15.06837,3.17723 37.33273,3.17832 52.72453,0.003 z"
         id="path3386"
         inkscape:connector-curvature="0" />
      <path
         style="fill:#5aa7af"
         d="m 381.40111,838.25094 c 1.90008,-0.28732 4.71258,-0.27963 6.25,0.017 1.53743,0.29671 -0.0171,0.53178 -3.45468,0.5224 -3.4375,-0.01 -4.69539,-0.25215 -2.79532,-0.53946 z m 18.75,0 c 1.90008,-0.28732 4.71258,-0.27963 6.25,0.017 1.53743,0.29671 -0.0172,0.53178 -3.45468,0.5224 -3.4375,-0.01 -4.69539,-0.25215 -2.79532,-0.53946 z M 383.98809,662.32791 c 0,-1.00102 0.47792,-1.52464 1.06206,-1.16363 0.58413,0.36102 0.73844,1.18001 0.34289,1.82001 -1.01078,1.63548 -1.40495,1.45133 -1.40495,-0.65638 z M 116.41188,571.64792 c 0,-3.09375 0.24377,-4.35938 0.54171,-2.8125 0.29794,1.54687 0.29794,4.07812 0,5.625 -0.29794,1.54687 -0.54171,0.28125 -0.54171,-2.8125 z m 553.76706,-0.625 c 0.01,-3.4375 0.25215,-4.69539 0.53946,-2.79531 0.28733,1.90007 0.27964,4.71257 -0.017,6.25 -0.2967,1.53742 -0.53177,-0.0172 -0.5224,-3.45469 z m 0,-18.75 c 0.01,-3.4375 0.25215,-4.69539 0.53946,-2.79531 0.28733,1.90007 0.27964,4.71257 -0.017,6.25 -0.2967,1.53742 -0.53177,-0.0171 -0.5224,-3.45469 z m -553.76706,-0.625 c 0,-3.09375 0.24377,-4.35938 0.54171,-2.8125 0.29794,1.54687 0.29794,4.07812 0,5.625 -0.29794,1.54687 -0.54171,0.28125 -0.54171,-2.8125 z M 392.00893,442.07007 c 0.85937,-0.34676 2.26562,-0.34676 3.125,0 0.85937,0.34676 0.15625,0.63049 -1.5625,0.63049 -1.71875,0 -2.42188,-0.28373 -1.5625,-0.63049 z m -11.25,-157.55432 c 1.54687,-0.29794 4.07812,-0.29794 5.625,0 1.54687,0.29794 0.28125,0.54171 -2.8125,0.54171 -3.09375,0 -4.35938,-0.24377 -2.8125,-0.54171 z m 20,0 c 1.54687,-0.29794 4.07812,-0.29794 5.625,0 1.54687,0.29794 0.28125,0.54171 -2.8125,0.54171 -3.09375,0 -4.35938,-0.24377 -2.8125,-0.54171 z"
         id="path3384"
         inkscape:connector-curvature="0" />
      <path
         style="fill:#2fa6ac"
         d="m 455.37022,549.05701 c -33.68852,-8.54253 -61.11795,-35.2046 -70.04435,-68.08485 -3.25167,-11.97746 -3.86207,-31.98631 -1.35347,-44.36675 6.95844,-34.34129 30.60387,-61.01771 64.45184,-72.71359 11.29562,-3.9031 12.75931,-4.1033 30,-4.1033 17.11712,0 18.76086,0.22036 29.5599,3.96274 40.75007,14.12186 66.6901,49.74932 66.6901,91.5959 0,41.79705 -26.12047,77.81739 -66.25,91.35931 -10.33695,3.48826 -13.89875,4.06304 -27.5,4.43778 -12.58112,0.34662 -17.55927,-0.06 -25.55402,-2.08724 z m 39.89315,-13.09915 c 17.72802,-3.75527 36.9106,-15.54695 47.32252,-29.08949 25.7875,-33.54123 23.84036,-77.64775 -4.7489,-107.5718 -10.61875,-11.11452 -20.95815,-17.68565 -35.03775,-22.26796 -12.92414,-4.20625 -34.48179,-4.77809 -46.18465,-1.22509 -23.71619,7.20027 -42.22444,22.97164 -52.60178,44.82338 -11.12717,23.43065 -10.67445,47.62048 1.34705,71.97576 16.24195,32.90579 53.77848,51.00746 89.90351,43.3552 z M 470.92424,508.2336 c -29.42389,-4.92545 -48.84077,-31.07795 -44.83382,-60.38644 1.62299,-11.87121 7.10058,-22.07586 16.63943,-30.999 11.29095,-10.56213 18.63175,-13.29667 35.69439,-13.29667 17.06263,0 24.40343,2.73454 35.69438,13.29667 17.43917,16.31349 22.01264,40.20421 11.85267,61.91556 -9.31847,19.9131 -33.81004,33.02486 -55.04705,29.46988 z m 19.375,-15.53734 c 10.59646,-2.65289 22.49083,-14.74323 25.63365,-26.05595 1.8356,-6.60739 1.49527,-17.60256 -0.74869,-24.18823 -2.57318,-7.55187 -11.65304,-17.5942 -19.75046,-21.84403 -5.47003,-2.87087 -7.90635,-3.35082 -17.0095,-3.35082 -9.10315,0 -11.53948,0.47995 -17.0095,3.35082 -8.40625,4.41191 -17.25165,14.36953 -19.93143,22.43761 -4.76711,14.35242 -0.0164,32.22142 11.09513,41.73249 10.99706,9.41307 22.28498,11.78256 37.7208,7.91811 z"
         id="path3382"
         inkscape:connector-curvature="0"
         sodipodi:nodetypes="ssssssssssssssssssssssssssssssssss" />
      <path
         style="fill:#12808c"
         d="M 442.17424,829.9906 C 339.83587,815.08175 257.43115,750.12893 220.26577,655.07856 208.09406,623.94942 202.17424,591.3943 202.17424,555.58701 c 0,-25.3226 2.48326,-46.04664 8.20158,-68.44615 27.85162,-109.09891 120.61234,-191.53328 231.60059,-205.81826 19.8938,-2.56048 53.00185,-2.56048 72.89565,0 109.7094,14.12038 203.63248,96.77251 230.92069,203.20976 7.27809,28.38809 8.21372,36.48204 8.21372,71.05465 0,25.51283 -0.45692,34.36997 -2.28918,44.375 -11.05228,60.35045 -36.56262,109.92095 -77.77987,151.13819 -41.05656,41.05657 -91.06317,66.85157 -150.51318,77.6395 -16.14663,2.93 -64.6033,3.67602 -81.25,1.2509 z m -46.36942,-66.59109 c 1.88534,-1.55188 4.33827,-8.08968 8.44179,-22.5 l 5.78426,-20.3125 73.28675,0 73.28675,0 6.93708,20.9375 c 5.67541,17.12954 7.50212,21.25509 10.04392,22.68371 4.58875,2.57913 10.32457,-0.3469 10.83388,-5.5267 0.22972,-2.33628 -10.36299,-36.69417 -27.93748,-90.61631 -15.56912,-47.76926 -28.39188,-87.22586 -28.49502,-87.68134 -0.10313,-0.45547 4.48804,-3.17975 10.2026,-6.05395 34.60649,-17.4057 59.57896,-48.70377 70.47795,-88.3302 2.26542,-8.23659 2.69279,-13.15535 2.69671,-31.03771 0.004,-18.97871 -0.3439,-22.54674 -3.25654,-33.38226 -10.59136,-39.40164 -37.41123,-71.56093 -73.77391,-88.46114 -35.2708,-16.39274 -76.6115,-16.36465 -111.98104,0.0761 -40.26668,18.71707 -67.90736,54.84432 -75.8206,99.09992 -2.85676,15.9768 -2.0254,39.13502 1.95804,54.54238 10.11778,39.13406 36.22088,71.04055 72.32723,88.40742 6.59012,3.1698 12.13692,5.87037 12.32622,6.00127 0.18929,0.13088 -10.60064,38.17676 -23.97764,84.54638 -13.37698,46.36962 -24.70221,85.82412 -25.16717,87.67667 -2.26224,9.01347 5.24699,15.32985 11.80622,9.93076 z m 36.41405,-59.54404 c 1.0067,-0.95235 12.71963,-9.97698 26.02872,-20.05475 l 24.19835,-18.32321 3.20308,2.09875 c 5.602,3.67056 50.85033,35.71269 52.08772,36.88536 0.70501,0.66814 -20.86165,1.12539 -53.08037,1.12539 -46.28736,0 -53.99868,-0.25464 -52.4375,-1.73154 z m -14.78213,-9.65655 c 0.36511,-0.9553 4.51542,-15.09629 9.22292,-31.42441 4.7075,-16.32813 9.03015,-29.6875 9.60589,-29.6875 0.57574,0 8.37145,5.17906 17.32382,11.50901 12.5486,8.87276 15.8911,11.8076 14.59222,12.8125 -10.06,7.78315 -48.21555,36.5669 -49.59759,37.4154 -1.30381,0.80046 -1.62515,0.6254 -1.14726,-0.625 z m 104.02755,-19.9711 c -13.70328,-9.66391 -25.02408,-17.95215 -25.15733,-18.41828 -0.28615,-1.00099 30.72553,-24.54474 31.39325,-23.83345 0.74903,0.79788 19.39781,59.1038 19.02366,59.47794 -0.1895,0.1895 -11.55631,-7.5623 -25.25958,-17.22621 z m -52.5538,-37.18941 -13.61125,-9.5764 13.4375,-0.35479 c 7.39062,-0.19514 19.25636,-0.19514 26.3683,0 l 12.9308,0.35479 -12.75705,9.5764 -12.75705,9.57641 -13.61125,-9.57641 z m -26.73625,-26.46005 c 0,-0.69226 1.52068,-6.64221 3.37931,-13.22211 3.27476,-11.59336 3.47777,-11.93999 6.5625,-11.20473 7.38611,1.7605 37.18691,2.20189 46.30819,0.68588 15.29272,-2.54175 13.74458,-3.44113 18.28852,10.62461 2.22098,6.875 4.07714,12.92187 4.1248,13.4375 0.0477,0.51562 -17.63207,0.9375 -39.28832,0.9375 -25.59719,0 -39.375,-0.44043 -39.375,-1.25865 z m 20.16362,-38.75587 c -4.37876,-0.61412 -8.16659,-1.32177 -8.41739,-1.57257 -0.2508,-0.25081 0.82129,-4.91441 2.38243,-10.36357 l 2.83841,-9.90757 4.95396,0.60919 c 7.33309,0.90175 21.48097,0.75265 29.52928,-0.3112 l 7.0753,-0.93522 3.22534,9.59291 c 1.77393,5.27611 2.99398,9.82428 2.71122,10.10704 -2.6555,2.6555 -32.04007,4.50021 -44.29855,2.78098 z m -33.82479,-10.03917 c -45.77708,-21.65601 -73.02976,-69.96027 -67.49168,-119.62625 5.4236,-48.63926 38.69018,-87.84322 86.23693,-101.6284 13.28978,-3.8531 39.48259,-4.76573 53.75829,-1.87311 47.98009,9.72201 83.93908,46.18082 93.75329,95.05645 2.40277,11.96602 1.82391,34.47513 -1.21534,47.25873 -8.29211,34.87805 -31.3987,63.96526 -63.69211,80.17741 -3.67774,1.84631 -6.83233,3.1785 -7.01019,2.9604 -0.17786,-0.2181 -1.75575,-4.71119 -3.5064,-9.98465 l -3.18301,-9.58812 10.19319,-5.90402 c 12.6844,-7.34695 28.45608,-22.84309 35.54071,-34.91975 10.55142,-17.98629 15.47946,-40.70855 12.99804,-59.93146 -2.97247,-23.02681 -11.97333,-41.41075 -28.23834,-57.67575 -16.31701,-16.31703 -33.98016,-24.96562 -57.29471,-28.05378 -51.50733,-6.82251 -100.52063,32.00318 -107.31875,85.01212 -2.55195,19.89903 2.33991,43.26061 12.72713,60.77971 8.8971,15.00584 30.91222,34.58082 44.3608,39.4439 2.36133,0.85386 4.29332,2.05053 4.29332,2.65926 0,2.2874 -5.41652,19.64096 -6.13018,19.64001 -0.40965,-5.4e-4 -4.3611,-1.71175 -8.78099,-3.8027 z m 36.0085,-26.76564 c -0.42058,-0.42059 0.94068,-6.67564 3.02505,-13.90011 l 3.78977,-13.13539 8.12378,0.36492 8.12379,0.36491 4.15601,12.40996 c 2.2858,6.82549 3.83582,12.73174 3.44448,13.125 -0.98669,0.99155 -29.71983,1.71377 -30.66288,0.77071 z m -25.47233,-9.15501 c -13.03663,-6.86673 -26.34072,-20.63554 -32.91815,-34.06797 -2.8501,-5.82048 -6.03134,-13.93524 -7.06943,-18.03282 -2.42307,-9.56446 -2.42307,-29.28528 0,-38.84975 5.75145,-22.70238 21.88574,-43.06015 41.90489,-52.87431 15.49359,-7.59556 23.99805,-9.39931 40.58269,-8.6074 22.68198,1.08305 38.78522,8.05485 54.26565,23.49398 15.60882,15.56718 22.51272,31.49938 23.53475,54.31138 0.74447,16.61719 -1.0689,25.14334 -8.62622,40.55892 -6.33317,12.91853 -19.93076,27.20275 -31.9165,33.52813 l -7.74231,4.08597 -3.82019,-11.92584 c -2.1011,-6.55921 -3.82018,-12.74843 -3.82018,-13.7538 0,-1.00538 1.54687,-2.63612 3.4375,-3.62389 6.57732,-3.43634 15.56675,-13.75026 19.9637,-22.90511 10.16697,-21.16864 5.31948,-45.9826 -12.09815,-61.92965 -21.1377,-19.35301 -52.37004,-19.2523 -72.97534,0.23534 -22.21119,21.00642 -22.8001,55.33703 -1.31776,76.81937 3.5617,3.5617 8.48517,7.55793 10.94106,8.8805 5.06145,2.72578 5.07707,1.85044 -0.33931,19.01105 l -3.2367,10.25477 -8.75,-4.60887 z m 36.9701,-34.33816 c 0.0522,-0.85938 0.8006,-3.51635 1.66287,-5.90439 l 1.56778,-4.34187 0.74958,3.71687 c 0.41228,2.04429 1.13042,4.70126 1.59587,5.90439 0.67328,1.74035 0.18015,2.1875 -2.41247,2.1875 -1.82437,0 -3.21687,-0.68775 -3.16363,-1.5625 z m -23.22245,-8.57311 c -8.47265,-7.80983 -12.47963,-17.05369 -12.40048,-28.60718 0.10488,-15.31423 7.263,-26.93137 20.74548,-33.66865 6.57348,-3.2848 9.06666,-3.83856 17.28235,-3.83856 8.20693,0 10.7112,0.55493 17.25026,3.82254 8.78224,4.38852 13.08055,8.95445 17.58281,18.67746 6.86241,14.81995 3.09479,32.27616 -9.465,43.85337 l -5.83076,5.37461 -3.3413,-9.92649 -3.3413,-9.92649 2.44944,-3.49604 c 6.27997,-8.96325 2.82042,-22.28825 -7.02394,-27.05382 -6.65116,-3.21978 -9.87878,-3.23454 -16.40544,-0.075 -10.15402,4.91547 -13.59094,18.0679 -7.10254,27.18002 l 2.60508,3.65849 -2.63953,9.58069 c -1.45173,5.26937 -3.1242,9.58068 -3.71657,9.58068 -0.59239,0 -3.58424,-2.31102 -6.64856,-5.13561 z"
         id="path3376"
         inkscape:connector-curvature="0" />
    </g>
  </g>
</svg>
